# xmcd
#
# Track frame offsets:
#	182
#	9647
#	24345
#	40140
#	53285
#	68100
#	80435
#	92240
#	106322
#	119640
#	131210
#	145320
#
# Disc length: 2059 seconds
#
# Revision: 0
# Processed by: cddbd v1.5PL3 Copyright (c) Steve Scherf et al.
# Submitted via: dBpowerAMP V4.0
#
DISCID=9e08090c
DTITLE=The Starlite Orchestra - Music for the Golden Years
DYEAR=1900
DGENRE=Easy Listening
TTITLE0=The Anniversary Waltz
TTITLE1=As Time Goes By
TTITLE2=Cheek to Cheek
TTITLE3=Climb Every Mountain
TTITLE4=Fascination
TTITLE5=Hello Young Lovers
TTITLE6=I Love Paris
TTITLE7=If Ever I Would Leave
TTITLE8=Mack The Knife
TTITLE9=Mona Lisa
TTITLE10=Moon River
TTITLE11=Over The Rainbow
EXTD=
EXTT0=
EXTT1=
EXTT2=
EXTT3=
EXTT4=
EXTT5=
EXTT6=
EXTT7=
EXTT8=
EXTT9=
EXTT10=
EXTT11=
PLAYORDER=
